# xmcd
#
# Track frame offsets:
#	150
#	85500
#	156075
#
# Disc length: 3676 seconds
#
# Revision: 0
# Processed by: cddbd v1.5.2PL0 Copyright (c) Steve Scherf et al.
# Submitted via: EasyCDDAExtractor 16.0.6.1
#
DISCID=130e5a03
DTITLE=Χορός Αγιορειτών πατέρων - Άγιον Όρος 1000 χρόνια 09
DYEAR=2012
DGENRE=Βυζ. Εκκλησιαστική
TTITLE0=Αγρ. κ Παν. Τιμ. Ζ.-Σοφία ορθή,τρισάγιος[β']Κύριε επίβλεψον, Δύναμις[π
TTITLE0=λ.α']
TTITLE1=Αγρ. κ Παν. Τιμ. Ζ.-Χερουβικό
TTITLE2=Αγρ. κ Παν. Τιμ. Ζ.-Λειτουργικά[πλ.α']-Καταβασία[δ']-Μεγαλυν.[β']Απολυ
TTITLE2=τίκιο[β']
EXTD=
EXTT0=
EXTT1=
EXTT2=
PLAYORDER=
